<?xml version="1.0" standalone="no"?>
<!DOCTYPE svg PUBLIC "-//W3C//DTD SVG 20010904//EN"
 "http://www.w3.org/TR/2001/REC-SVG-20010904/DTD/svg10.dtd">
<svg version="1.0" xmlns="http://www.w3.org/2000/svg"
 width="500.000000pt" height="500.000000pt" viewBox="0 0 500.000000 500.000000"
 preserveAspectRatio="xMidYMid meet">
<metadata>
Created by potrace 1.14, written by Peter Selinger 2001-2017
</metadata>
<g transform="translate(0.000000,500.000000) scale(0.100000,-0.100000)"
fill="#000000" stroke="none">
<path d="M2285 4860 c-44 -5 -154 -13 -245 -20 -580 -39 -1255 -189 -1807
-402 -99 -38 -102 -40 -93 -63 14 -37 110 -229 120 -239 4 -4 64 15 132 42
454 185 967 312 1483 368 202 22 836 30 1062 15 597 -42 1185 -178 1705 -395
48 -20 91 -36 96 -36 14 0 136 261 126 270 -15 13 -330 125 -495 175 -516 155
-961 236 -1519 276 -215 15 -470 19 -565 9z"/>
<path d="M1870 4393 c-409 -42 -757 -113 -1090 -223 -148 -49 -338 -123 -404
-157 l-38 -19 40 -50 c64 -81 191 -195 287 -259 78 -52 287 -165 305 -165 3 0
12 27 18 59 42 200 229 281 661 284 l185 2 57 -320 c175 -973 571 -3184 585
-3270 10 -55 20 -103 23 -107 4 -4 155 828 336 1849 l330 1856 185 -6 c401
-14 564 -67 636 -210 13 -26 27 -67 31 -92 7 -54 5 -54 128 8 176 87 357 223
456 343 29 36 55 69 57 74 6 17 -293 137 -510 204 -337 104 -757 184 -1058
201 l-105 5 -240 -295 c-132 -162 -242 -295 -245 -294 -3 0 -113 132 -245 294
l-240 294 -55 -1 c-30 -1 -71 -3 -90 -5z"/>
</g>
</svg>
